<svg width="94.775" height="54.574" viewBox="0 0 94.775 54.574" xmlns="http://www.w3.org/2000/svg"><g id="svgGroup" stroke-linecap="round" fill-rule="evenodd" font-size="9pt" stroke="#575252" stroke-width="0.50mm" fill="#121111" style="stroke:#575252;stroke-width:0.50mm;fill:#121111"><path d="M 49.81 52.02 L 49.81 53.55 L 32.385 53.55 L 32.385 52.02 L 37.91 52.02 L 31.96 35.615 L 13.26 35.615 L 7.31 52.02 L 12.835 52.02 L 12.835 53.55 L 0 53.55 L 0 52.02 L 3.145 52.02 A 1.807 1.807 0 0 0 3.84 51.893 Q 4.305 51.701 4.583 51.218 A 2.386 2.386 0 0 0 4.76 50.83 L 23.46 0 L 26.35 0 L 45.05 50.83 A 2.162 2.162 0 0 0 45.357 51.415 Q 45.817 52.02 46.665 52.02 L 49.81 52.02 Z M 31.11 33.235 L 22.695 10.03 L 14.195 33.235 L 31.11 33.235 Z" id="0" vector-effect="non-scaling-stroke"/><path d="M 83.98 38.675 L 85.935 46.495 Q 86.787 50.018 88.324 51.186 A 2.729 2.729 0 0 0 90.015 51.765 A 3.142 3.142 0 0 0 91.028 51.609 A 2.568 2.568 0 0 0 92.267 50.702 Q 93.075 49.64 93.075 48.153 A 15.259 15.259 0 0 0 92.98 46.419 A 12.476 12.476 0 0 0 92.82 45.39 L 94.435 45.135 A 10.002 10.002 0 0 1 94.727 46.828 A 12.557 12.557 0 0 1 94.775 47.94 A 8.266 8.266 0 0 1 94.529 50.015 A 5.833 5.833 0 0 1 92.948 52.785 A 6.193 6.193 0 0 1 89.276 54.507 A 8.475 8.475 0 0 1 88.23 54.57 Q 81.09 54.57 78.88 45.475 L 76.925 37.655 A 27.16 27.16 0 0 0 76.025 34.813 Q 74.915 31.917 73.364 30.364 A 7.224 7.224 0 0 0 72.93 29.963 A 8.376 8.376 0 0 0 69.961 28.371 Q 68.116 27.795 65.705 27.795 L 65.705 25.925 L 85.765 1.53 L 81.515 1.53 L 81.515 0 L 93.075 0 L 93.075 1.53 L 90.78 1.53 Q 89.42 1.53 88.4 2.72 L 69.36 25.755 A 19.89 19.89 0 0 1 73.135 26.14 Q 76.941 26.929 79.22 29.325 A 17.414 17.414 0 0 1 82.287 33.849 Q 83.325 36.017 83.98 38.675 Z M 57.12 50.83 L 57.12 2.55 A 1.24 1.24 0 0 0 57.05 2.117 Q 56.848 1.571 56.052 1.533 A 2.565 2.565 0 0 0 55.93 1.53 L 51.935 1.53 L 51.935 0 L 69.275 0 L 69.275 1.53 L 65.28 1.53 A 2.022 2.022 0 0 0 64.833 1.575 Q 64.213 1.716 64.11 2.3 A 1.442 1.442 0 0 0 64.09 2.55 L 64.09 50.83 A 1.713 1.713 0 0 0 64.149 51.301 Q 64.355 52.02 65.28 52.02 L 69.275 52.02 L 69.275 53.55 L 51.935 53.55 L 51.935 52.02 L 55.93 52.02 A 1.713 1.713 0 0 0 56.401 51.961 Q 57.12 51.755 57.12 50.83 Z" id="1" vector-effect="non-scaling-stroke"/></g></svg>