<svg width="111.5" height="64.205" viewBox="0 0 111.5 64.205" xmlns="http://www.w3.org/2000/svg">
    <g id="svgGroup" stroke-linecap="round" fill-rule="evenodd" font-size="9pt" stroke="#000"
        stroke-width="0.25mm" fill="#000" style="stroke:#000;stroke-width:0.25mm;fill:#000">
        <path
            d="M 58.6 61.2 L 58.6 63 L 38.1 63 L 38.1 61.2 L 44.6 61.2 L 37.6 41.9 L 15.6 41.9 L 8.6 61.2 L 15.1 61.2 L 15.1 63 L 0 63 L 0 61.2 L 3.7 61.2 A 2.126 2.126 0 0 0 4.518 61.051 Q 5.065 60.825 5.392 60.256 A 2.807 2.807 0 0 0 5.6 59.8 L 27.6 0 L 31 0 L 53 59.8 Q 53.5 61.2 54.9 61.2 L 58.6 61.2 Z M 98.8 45.5 L 101.1 54.7 A 19.235 19.235 0 0 0 101.784 56.963 Q 103.27 60.9 105.9 60.9 Q 107.6 60.9 108.55 59.65 A 4.649 4.649 0 0 0 109.469 57.263 A 5.989 5.989 0 0 0 109.5 56.65 A 17.951 17.951 0 0 0 109.389 54.61 A 14.677 14.677 0 0 0 109.2 53.4 L 111.1 53.1 A 11.767 11.767 0 0 1 111.444 55.092 A 14.773 14.773 0 0 1 111.5 56.4 A 9.725 9.725 0 0 1 111.21 58.842 A 6.862 6.862 0 0 1 109.35 62.1 A 7.286 7.286 0 0 1 105.031 64.126 A 9.97 9.97 0 0 1 103.8 64.2 A 9.599 9.599 0 0 1 95.363 59.728 Q 94.207 58.009 93.41 55.628 A 26.101 26.101 0 0 1 92.8 53.5 L 90.5 44.3 Q 88.947 38.363 86.31 35.722 A 8.499 8.499 0 0 0 85.8 35.25 A 9.854 9.854 0 0 0 82.307 33.378 Q 80.848 32.922 79.09 32.773 A 21.147 21.147 0 0 0 77.3 32.7 L 77.3 30.5 L 100.9 1.8 L 95.9 1.8 L 95.9 0 L 109.5 0 L 109.5 1.8 L 106.8 1.8 A 3.406 3.406 0 0 0 104.504 2.689 A 4.928 4.928 0 0 0 104 3.2 L 81.6 30.3 Q 89.3 30.4 93.2 34.5 A 20.487 20.487 0 0 1 96.808 39.822 Q 97.934 42.174 98.677 45.015 A 35.414 35.414 0 0 1 98.8 45.5 Z M 67.2 59.8 L 67.2 3 A 1.459 1.459 0 0 0 67.118 2.49 Q 66.879 1.848 65.944 1.803 A 3.018 3.018 0 0 0 65.8 1.8 L 61.1 1.8 L 61.1 0 L 81.5 0 L 81.5 1.8 L 76.8 1.8 A 2.378 2.378 0 0 0 76.274 1.853 Q 75.545 2.019 75.424 2.706 A 1.697 1.697 0 0 0 75.4 3 L 75.4 59.8 A 2.015 2.015 0 0 0 75.469 60.354 Q 75.647 60.975 76.282 61.14 A 2.063 2.063 0 0 0 76.8 61.2 L 81.5 61.2 L 81.5 63 L 61.1 63 L 61.1 61.2 L 65.8 61.2 A 2.015 2.015 0 0 0 66.354 61.131 Q 66.975 60.953 67.14 60.318 A 2.063 2.063 0 0 0 67.2 59.8 Z M 36.6 39.1 L 26.7 11.8 L 16.7 39.1 L 36.6 39.1 Z"
            vector-effect="non-scaling-stroke" />
    </g>
</svg>